<?xml version="1.0" encoding="UTF-8" standalone="no"?>
<!-- Created with Inkscape (http://www.inkscape.org/) -->

<svg
   version="1.1"
   id="svg5176"
   width="800"
   height="800"
   viewBox="0 0 800 800"
   sodipodi:docname="lyre.icon-publicdomainvectors.org.svg"
   inkscape:version="1.2 (dc2aedaf03, 2022-05-15)"
   xmlns:inkscape="http://www.inkscape.org/namespaces/inkscape"
   xmlns:sodipodi="http://sodipodi.sourceforge.net/DTD/sodipodi-0.dtd"
   xmlns="http://www.w3.org/2000/svg"
   xmlns:svg="http://www.w3.org/2000/svg">
  <defs
     id="defs5180">
    <clipPath
       clipPathUnits="userSpaceOnUse"
       id="clipPath5192">
      <path
         d="M 0,600 H 600 V 0 H 0 Z"
         id="path5190" />
    </clipPath>
  </defs>
  <sodipodi:namedview
     id="namedview5178"
     pagecolor="#ffffff"
     bordercolor="#000000"
     borderopacity="0.25"
     inkscape:showpageshadow="2"
     inkscape:pageopacity="0.0"
     inkscape:pagecheckerboard="0"
     inkscape:deskcolor="#d1d1d1"
     showgrid="false"
     inkscape:zoom="1.04625"
     inkscape:cx="400"
     inkscape:cy="400.4779"
     inkscape:window-width="1920"
     inkscape:window-height="1017"
     inkscape:window-x="-8"
     inkscape:window-y="-8"
     inkscape:window-maximized="1"
     inkscape:current-layer="g5184">
    <inkscape:page
       x="0"
       y="0"
       id="page5182"
       width="800"
       height="800" />
  </sodipodi:namedview>
  <g
     id="g5184"
     inkscape:groupmode="layer"
     inkscape:label="Page 1"
     transform="matrix(1.3333333,0,0,-1.3333333,0,800)">
    <g
       id="g5186">
      <g
         id="g5188"
         clip-path="url(#clipPath5192)">
        <g
           id="g5194"
           transform="translate(420.4941,124.9375)">
          <path
             d="M 0,0 C 17.23,14.324 35.954,11.545 55.244,2.303 35.082,-10.242 16.525,-11.962 0,0 m -9.173,13.443 c -9.997,12.795 -9.172,27.603 0.215,44.004 7.914,-15.069 10.674,-29.88 -0.215,-44.004 m 41.214,6.812 C 46.187,36.176 64.177,36.238 83.623,30.308 66.47,15.64 49.278,11.374 32.041,20.255 M 21.502,31.578 C 10.282,42.171 8.94,56.203 15.419,72.956 25.01,59.926 29.715,46.403 21.502,31.578 m 38.789,13.656 c 11.04,16.902 27.9,19.473 46.957,16.627 C 93.215,45.715 77.691,39.316 60.291,45.234 m -11.46,9.147 c -12,8.365 -15.216,21.335 -11.479,37.946 10.809,-10.878 17.111,-22.9 11.479,-37.946 M 84.107,74.229 C 92.129,91.537 107.546,96.236 125.756,96.17 114.831,79.16 101.185,71.063 84.107,74.229 M 72.144,81.22 C 59.784,87.411 55.01,99.1 56.242,115.144 67.833,106.441 75.36,96.058 72.144,81.22 m 30.872,25.211 c 5.171,17.209 18.918,23.646 35.905,26.012 -7.919,-17.315 -19.56,-26.685 -35.905,-26.012 m -12.085,4.924 c -12.352,4.124 -18.361,14.385 -19.35,29.507 11.967,-6.566 20.37,-15.244 19.35,-29.507 m 25.749,29.665 c 2.539,16.665 14.462,24.454 29.93,28.887 -5.077,-17.129 -14.66,-27.363 -29.93,-28.887 m -11.876,2.985 c -12.016,2.205 -18.947,10.946 -21.858,24.862 11.981,-4.525 20.93,-11.48 21.858,-24.862 m 20.057,33.149 c 0.164,15.746 10.17,24.513 23.897,30.643 -2.452,-16.508 -9.972,-27.232 -23.897,-30.643 m -11.375,1.202 c -11.401,0.465 -18.961,7.64 -23.478,20.131 11.677,-2.614 20.865,-7.874 23.478,-20.131 m 13.909,35.631 c -1.926,14.511 6.125,23.898 17.948,31.349 -0.078,-15.514 -5.583,-26.373 -17.948,-31.349 m -10.624,-0.393 c -10.553,-1.077 -18.454,4.531 -24.257,15.428 11.086,-0.867 20.235,-4.495 24.257,-15.428 m 7.433,37.054 c -3.697,13.016 2.413,22.672 12.231,31.063 1.999,-14.196 -1.587,-24.862 -12.231,-31.063 m -9.663,-1.778 c -9.507,-2.391 -17.48,1.681 -24.243,10.872 10.256,0.689 19.105,-1.408 24.243,-10.872 m 1.366,37.766 c -5.682,11.044 -1.93,20.842 5.388,30.168 4.366,-12.414 3.068,-22.661 -5.388,-30.168 m -8.376,-3.348 c -8.124,-3.873 -16.038,-1.65 -23.784,5.399 9.105,2.475 17.448,2.188 23.784,-5.399 m -6.526,36.585 c -6.143,9.495 -3.624,18.711 2.167,27.822 5.074,-10.858 4.821,-20.26 -2.167,-27.822 m -7.289,-3.789 c -7.013,-4.243 -14.383,-2.939 -22.039,2.751 8.028,3.061 15.615,3.554 22.039,-2.751 M -10.607,0.523 C -3.949,3.465 2.551,6.719 8.88,10.261 118.759,71.734 158.753,212.358 97.153,322.455 144.661,210.397 116.412,87.254 3.967,19.098 -1.978,15.77 -8.199,12.664 -14.689,9.796 Z M -189.982,0 c -17.232,14.324 -35.954,11.545 -55.244,2.303 20.162,-12.545 38.718,-14.265 55.244,-2.303 m 9.172,13.443 c 9.996,12.795 9.172,27.603 -0.215,44.004 -7.914,-15.069 -10.673,-29.88 0.215,-44.004 m -41.214,6.812 c -14.145,15.921 -32.138,15.983 -51.583,10.053 17.153,-14.668 34.344,-18.934 51.583,-10.053 m 10.539,11.323 c 11.22,10.593 12.561,24.625 6.081,41.378 -9.59,-13.03 -14.294,-26.553 -6.081,-41.378 m -38.79,13.656 c -11.04,16.902 -27.9,19.473 -46.958,16.627 14.036,-16.146 29.557,-22.545 46.958,-16.627 m 11.46,9.147 c 12.002,8.365 15.217,21.335 11.481,37.946 -10.812,-10.878 -17.111,-22.9 -11.481,-37.946 m -35.274,19.848 c -8.025,17.308 -23.439,22.007 -41.649,21.941 10.925,-17.01 24.569,-25.107 41.649,-21.941 m 11.963,6.991 c 12.359,6.191 17.132,17.88 15.9,33.924 -11.591,-8.703 -19.119,-19.086 -15.9,-33.924 m -30.872,25.211 c -5.173,17.209 -18.918,23.646 -35.906,26.012 7.92,-17.315 19.56,-26.685 35.906,-26.012 m 12.085,4.924 c 12.349,4.124 18.358,14.385 19.35,29.507 -11.967,-6.566 -20.372,-15.244 -19.35,-29.507 m -25.749,29.665 c -2.541,16.665 -14.462,24.454 -29.932,28.887 5.078,-17.129 14.659,-27.363 29.932,-28.887 m 11.876,2.985 c 12.015,2.205 18.946,10.946 21.857,24.862 -11.981,-4.525 -20.929,-11.48 -21.857,-24.862 m -20.058,33.149 c -0.164,15.746 -10.17,24.513 -23.896,30.643 2.452,-16.508 9.969,-27.232 23.896,-30.643 m 11.374,1.202 c 11.403,0.465 18.962,7.64 23.478,20.131 -11.675,-2.614 -20.863,-7.874 -23.478,-20.131 m -13.907,35.631 c 1.925,14.511 -6.127,23.898 -17.949,31.349 0.079,-15.514 5.583,-26.373 17.949,-31.349 m 10.624,-0.393 c 10.551,-1.077 18.453,4.531 24.255,15.428 -11.086,-0.867 -20.236,-4.495 -24.255,-15.428 m -7.435,37.054 c 3.699,13.016 -2.412,22.672 -12.229,31.063 -1.999,-14.196 1.587,-24.862 12.229,-31.063 m 9.665,-1.778 c 9.506,-2.391 17.48,1.681 24.241,10.872 -10.255,0.689 -19.105,-1.408 -24.241,-10.872 m -1.367,37.766 c 5.683,11.044 1.93,20.842 -5.387,30.168 -4.367,-12.414 -3.071,-22.661 5.387,-30.168 m 8.376,-3.348 c 8.124,-3.873 16.037,-1.65 23.785,5.399 -9.106,2.475 -17.451,2.188 -23.785,-5.399 m 6.527,36.585 c 6.142,9.495 3.624,18.711 -2.167,27.822 -5.075,-10.858 -4.823,-20.26 2.167,-27.822 m 7.286,-3.789 c 7.015,-4.243 14.386,-2.939 22.039,2.751 -8.027,3.061 -15.615,3.554 -22.039,-2.751 M -179.375,0.523 c -6.66,2.942 -13.161,6.196 -19.49,9.738 -109.877,61.473 -149.871,202.097 -88.271,312.194 -47.51,-112.058 -19.258,-235.201 93.185,-303.357 5.947,-3.328 12.168,-6.434 18.656,-9.302 z"
             style="fill:#ffcc00;fill-opacity:1;fill-rule:evenodd;stroke:none"
             id="path5196" />
        </g>
        <path
           d="m 279.259,220.939 h 92.484 v 46.369 h -92.484 z"
           style="fill:#de9400;fill-opacity:1;fill-rule:evenodd;stroke:none"
           id="path5198" />
        <g
           id="g5200"
           transform="translate(279.2607,267.3066)">
          <path
             d="m 0,0 h 92.484 v -28.707 c -15.869,-2.244 -31.805,-2.898 -46.243,-2.898 -14.437,0 -30.372,0.654 -46.241,2.898 z"
             style="fill:#cf8a00;fill-opacity:1;fill-rule:evenodd;stroke:none"
             id="path5202" />
        </g>
        <g
           id="g5204"
           transform="translate(204.0781,519.3267)">
          <path
             d="m 0,0 c 2.969,-4.668 4.69,-10.207 4.69,-16.15 0,-16.646 -13.496,-30.14 -30.14,-30.14 -16.648,0 -30.008,13.495 -30.142,30.14 -0.336,41.375 81.143,74.614 87.668,-29.207 4.416,-70.26 -21.092,-163.604 66.848,-146.614 15.587,3.009 29.413,3.009 45,0 87.941,-16.99 62.433,76.354 66.849,146.614 6.525,103.821 88.004,70.582 87.668,29.207 -0.134,-16.645 -13.495,-30.14 -30.141,-30.14 -16.647,0 -30.141,13.494 -30.141,30.14 0,5.943 1.722,11.482 4.691,16.15 C 202.139,-62.501 371.01,-277.848 121.424,-277.848 -128.163,-277.848 40.708,-62.501 0,0"
             style="fill:#ffcc00;fill-opacity:1;fill-rule:evenodd;stroke:none"
             id="path5206" />
        </g>
        <g
           id="g5208"
           transform="translate(197.6123,529.7173)">
          <path
             d="m 0,0 c -2.918,0.945 -6.078,1.292 -9.468,0.956 -13.198,-1.307 -27.536,-13.508 -27.423,-27.397 0.081,-9.896 7.943,-18.004 17.907,-18.004 9.89,0 17.903,8.012 17.903,17.905 0,3.411 -0.948,6.705 -2.777,9.584 l -6.533,10.269 z"
             style="fill:#ffbb00;fill-opacity:1;fill-rule:evenodd;stroke:none"
             id="path5210" />
        </g>
        <g
           id="g5212"
           transform="translate(453.3936,529.7173)">
          <path
             d="M 0,0 10.389,-6.687 3.858,-16.956 c -1.832,-2.879 -2.777,-6.173 -2.777,-9.584 0,-9.893 8.013,-17.905 17.903,-17.905 9.962,0 17.826,8.108 17.907,18.004 0.011,1.466 -0.148,2.932 -0.453,4.365 -1.624,7.611 -7.295,14.27 -13.763,18.34 C 18.706,-1.239 14.147,0.491 9.468,0.956 6.076,1.292 2.918,0.945 0,0"
             style="fill:#ffbb00;fill-opacity:1;fill-rule:evenodd;stroke:none"
             id="path5214" />
        </g>
        <g
           id="g5216"
           transform="translate(199.8735,395.5771)">
          <path
             d="M 0,0 C 0.601,2.845 3.399,4.664 6.246,4.061 9.09,3.456 10.909,0.66 10.307,-2.186 7.316,-16.112 4.22,-32.33 3.387,-48.281 c -0.815,-15.617 0.517,-31.042 6.245,-43.84 1.183,-2.654 -0.009,-5.763 -2.66,-6.948 -2.652,-1.183 -5.763,0.008 -6.948,2.66 -6.503,14.537 -8.04,31.585 -7.15,48.665 C -6.252,-31 -3.07,-14.298 0,0 m 5.511,23.853 c 0.672,2.824 3.506,4.568 6.33,3.897 2.824,-0.671 4.568,-3.506 3.895,-6.329 C 14.254,15.227 17.99,30.823 14.673,16.88 14.078,14.375 13.669,12.653 13.599,12.365 12.938,9.53 10.108,7.767 7.271,8.428 4.437,9.087 2.673,11.921 3.334,14.755 c 0.643,2.737 0.951,4.041 1.073,4.56 2.597,10.916 -1.101,-4.682 1.104,4.538"
             style="fill:#ffdb4a;fill-opacity:1;fill-rule:evenodd;stroke:none"
             id="path5218" />
        </g>
        <g
           id="g5220"
           transform="translate(414.2813,454.1431)">
          <path
             d="m 0,0 c 0.013,6.735 0.165,13.378 0.57,19.827 0.054,0.854 0.126,1.675 0.189,2.512 H 26.926 C 27.748,15.274 29.049,7.794 30.639,0 Z m -178.316,22.339 c 0.063,-0.837 0.135,-1.658 0.189,-2.512 0.405,-6.449 0.558,-13.092 0.57,-19.827 h -27.802 c -0.954,0 -1.881,0.121 -2.765,0.35 1.559,7.668 2.831,15.029 3.642,21.989 z"
             style="fill:#ffb700;fill-opacity:1;fill-rule:evenodd;stroke:none"
             id="path5222" />
        </g>
        <g
           id="g5224"
           transform="translate(239.5757,279.207)">
          <path
             d="m 0,0 c -3.586,1.929 -4.93,6.398 -3.001,9.984 1.928,3.586 6.4,4.93 9.986,3.002 C 18.307,6.874 32.476,3.454 46.476,1.553 60.708,-0.381 74.945,-0.73 85.926,-0.73 c 10.982,0 25.22,0.349 39.454,2.283 13.997,1.901 28.167,5.321 39.49,11.433 3.586,1.928 8.055,0.584 9.985,-3.002 1.927,-3.586 0.583,-8.055 -3.003,-9.984 -13.063,-7.052 -28.962,-10.935 -44.511,-13.051 -15.313,-2.079 -30.098,-2.457 -41.415,-2.457 -11.313,0 -26.1,0.378 -41.415,2.457 C 28.962,-10.935 13.064,-7.052 0,0"
             style="fill:#de9400;fill-opacity:1;fill-rule:evenodd;stroke:none"
             id="path5226" />
        </g>
        <g
           id="g5228"
           transform="translate(168.2617,481.3984)">
          <path
             d="m 0,0 c 9.521,0 17.286,7.766 17.286,17.286 0,9.52 -7.765,17.286 -17.286,17.286 -9.52,0 -17.286,-7.766 -17.286,-17.286 C -17.286,7.766 -9.52,0 0,0"
             style="fill:#ffdc4f;fill-opacity:1;fill-rule:evenodd;stroke:none"
             id="path5230" />
        </g>
        <g
           id="g5232"
           transform="translate(463.9707,481.3984)">
          <path
             d="m 0,0 c 9.52,0 17.286,7.766 17.286,17.286 0,9.52 -7.766,17.286 -17.286,17.286 -9.521,0 -17.286,-7.766 -17.286,-17.286 C -17.286,7.766 -9.521,0 0,0"
             style="fill:#ffdc4f;fill-opacity:1;fill-rule:evenodd;stroke:none"
             id="path5234" />
        </g>
        <g
           id="g5236"
           transform="translate(325.502,515.5435)">
          <path
             d="M 0,0 V 0 C 2.384,0 4.334,-1.95 4.334,-4.334 V -244.83 c 0,-2.383 -1.95,-4.334 -4.334,-4.334 -2.384,0 -4.334,1.951 -4.334,4.334 V -4.334 C -4.334,-1.95 -2.384,0 0,0"
             style="fill:#614100;fill-opacity:1;fill-rule:evenodd;stroke:none"
             id="path5238" />
        </g>
        <g
           id="g5240"
           transform="translate(324.5127,498.2178)">
          <path
             d="m 0,0 v 0 c 1.024,0 1.863,-0.837 1.863,-1.861 v -221.236 c 0,-1.024 -0.839,-1.861 -1.863,-1.861 -1.023,0 -1.861,0.837 -1.861,1.861 V -1.861 C -1.861,-0.837 -1.023,0 0,0"
             style="fill:#825b0e;fill-opacity:1;fill-rule:evenodd;stroke:none"
             id="path5242" />
        </g>
        <g
           id="g5244"
           transform="translate(324.5127,501.9604)">
          <path
             d="M 0,0 V 0 C 1.024,0 1.863,0.838 1.863,1.861 V 4.989 C 1.863,6.013 1.024,6.85 0,6.85 -1.023,6.85 -1.861,6.013 -1.861,4.989 V 1.861 C -1.861,0.838 -1.023,0 0,0"
             style="fill:#825b0e;fill-opacity:1;fill-rule:evenodd;stroke:none"
             id="path5246" />
        </g>
        <g
           id="g5248"
           transform="translate(290.8359,506.2368)">
          <path
             d="m 0,0 v 0 c 2.383,0 4.333,-1.971 4.333,-4.379 v -229.015 c 0,-2.408 -1.95,-4.38 -4.333,-4.38 -2.384,0 -4.334,1.972 -4.334,4.38 V -4.379 C -4.334,-1.971 -2.384,0 0,0"
             style="fill:#614100;fill-opacity:1;fill-rule:evenodd;stroke:none"
             id="path5250" />
        </g>
        <g
           id="g5252"
           transform="translate(289.8467,489.7021)">
          <path
             d="m 0,0 v 0 c 1.024,0 1.863,-0.846 1.863,-1.88 v -210.916 c 0,-1.032 -0.839,-1.88 -1.863,-1.88 -1.024,0 -1.861,0.848 -1.861,1.88 V -1.88 C -1.861,-0.846 -1.024,0 0,0"
             style="fill:#825b0e;fill-opacity:1;fill-rule:evenodd;stroke:none"
             id="path5254" />
        </g>
        <g
           id="g5256"
           transform="translate(289.8467,493.2739)">
          <path
             d="M 0,0 V 0 C 1.024,0 1.863,0.846 1.863,1.88 V 4.657 C 1.863,5.693 1.024,6.539 0,6.539 -1.024,6.539 -1.861,5.693 -1.861,4.657 V 1.88 C -1.861,0.846 -1.024,0 0,0"
             style="fill:#825b0e;fill-opacity:1;fill-rule:evenodd;stroke:none"
             id="path5258" />
        </g>
        <g
           id="g5260"
           transform="translate(256.1699,496.9297)">
          <path
             d="m 0,0 v 0 c 2.383,0 4.333,-1.95 4.333,-4.333 v -212.876 c 0,-2.384 -1.95,-4.332 -4.333,-4.332 -2.384,0 -4.334,1.948 -4.334,4.332 V -4.333 C -4.334,-1.95 -2.384,0 0,0"
             style="fill:#614100;fill-opacity:1;fill-rule:evenodd;stroke:none"
             id="path5262" />
        </g>
        <g
           id="g5264"
           transform="translate(255.1807,481.5239)">
          <path
             d="m 0,0 v 0 c 1.024,0 1.863,-0.837 1.863,-1.861 v -196.298 c 0,-1.023 -0.839,-1.861 -1.863,-1.861 -1.024,0 -1.863,0.838 -1.863,1.861 V -1.861 C -1.863,-0.837 -1.024,0 0,0"
             style="fill:#825b0e;fill-opacity:1;fill-rule:evenodd;stroke:none"
             id="path5266" />
        </g>
        <g
           id="g5268"
           transform="translate(255.1807,484.8511)">
          <path
             d="M 0,0 V 0 C 1.024,0 1.863,0.839 1.863,1.863 V 4.231 C 1.863,5.255 1.024,6.092 0,6.092 -1.024,6.092 -1.863,5.255 -1.863,4.231 V 1.863 C -1.863,0.839 -1.024,0 0,0"
             style="fill:#825b0e;fill-opacity:1;fill-rule:evenodd;stroke:none"
             id="path5270" />
        </g>
        <g
           id="g5272"
           transform="translate(360.168,506.2368)">
          <path
             d="m 0,0 v 0 c 2.384,0 4.334,-1.971 4.334,-4.379 v -229.015 c 0,-2.408 -1.95,-4.38 -4.334,-4.38 -2.384,0 -4.334,1.972 -4.334,4.38 V -4.379 C -4.334,-1.971 -2.384,0 0,0"
             style="fill:#614100;fill-opacity:1;fill-rule:evenodd;stroke:none"
             id="path5274" />
        </g>
        <g
           id="g5276"
           transform="translate(359.1787,489.7021)">
          <path
             d="m 0,0 v 0 c 1.024,0 1.863,-0.846 1.863,-1.88 v -210.916 c 0,-1.032 -0.839,-1.88 -1.863,-1.88 -1.023,0 -1.86,0.848 -1.86,1.88 V -1.88 C -1.86,-0.846 -1.023,0 0,0"
             style="fill:#825b0e;fill-opacity:1;fill-rule:evenodd;stroke:none"
             id="path5278" />
        </g>
        <g
           id="g5280"
           transform="translate(359.1787,493.2739)">
          <path
             d="M 0,0 V 0 C 1.024,0 1.863,0.846 1.863,1.88 V 4.657 C 1.863,5.693 1.024,6.539 0,6.539 -1.023,6.539 -1.86,5.693 -1.86,4.657 V 1.88 C -1.86,0.846 -1.023,0 0,0"
             style="fill:#825b0e;fill-opacity:1;fill-rule:evenodd;stroke:none"
             id="path5282" />
        </g>
        <g
           id="g5284"
           transform="translate(394.834,496.9297)">
          <path
             d="m 0,0 h 0.002 c 2.384,0 4.332,-1.95 4.332,-4.333 v -212.876 c 0,-2.384 -1.948,-4.332 -4.332,-4.332 H 0 c -2.384,0 -4.332,1.948 -4.332,4.332 V -4.333 C -4.332,-1.95 -2.384,0 0,0"
             style="fill:#614100;fill-opacity:1;fill-rule:evenodd;stroke:none"
             id="path5286" />
        </g>
        <g
           id="g5288"
           transform="translate(393.8467,481.5239)">
          <path
             d="m 0,0 v 0 c 1.024,0 1.861,-0.837 1.861,-1.861 v -196.298 c 0,-1.023 -0.837,-1.861 -1.861,-1.861 -1.023,0 -1.862,0.838 -1.862,1.861 V -1.861 C -1.862,-0.837 -1.023,0 0,0"
             style="fill:#825b0e;fill-opacity:1;fill-rule:evenodd;stroke:none"
             id="path5290" />
        </g>
        <g
           id="g5292"
           transform="translate(393.8467,484.8511)">
          <path
             d="M 0,0 V 0 C 1.024,0 1.861,0.839 1.861,1.863 V 4.231 C 1.861,5.255 1.024,6.092 0,6.092 -1.023,6.092 -1.862,5.255 -1.862,4.231 V 1.863 C -1.862,0.839 -1.023,0 0,0"
             style="fill:#825b0e;fill-opacity:1;fill-rule:evenodd;stroke:none"
             id="path5294" />
        </g>
        <g
           id="g5296"
           transform="translate(208.9219,473.8037)">
          <path
             d="m 0,0 h 237.698 c 4.669,0 8.489,-3.82 8.489,-8.489 v -0.002 c 0,-4.669 -3.82,-8.489 -8.489,-8.489 L 0,-16.98 c -4.669,0 -8.489,3.82 -8.489,8.489 v 0.002 C -8.489,-3.82 -4.669,0 0,0"
             style="fill:#f0a000;fill-opacity:1;fill-rule:evenodd;stroke:none"
             id="path5298" />
        </g>
        <path
           d="m 252.419,191.952 h 146.166 v 36.503 H 252.419 Z"
           style="fill:#ffcc00;fill-opacity:1;fill-rule:evenodd;stroke:none"
           id="path5300" />
      </g>
    </g>
  </g>
</svg>
